<svg xmlns="http://www.w3.org/2000/svg" viewBox="0 0 850 420" width="100%" height="100%">
  <defs>
    <filter id="glowCyan" x="-20%" y="-20%" width="140%" height="140%">
      <feGaussianBlur stdDeviation="6" result="blur" />
      <feMerge>
        <feMergeNode in="blur" />
        <feMergeNode in="SourceGraphic" />
      </feMerge>
    </filter>
    <filter id="glowPink" x="-20%" y="-20%" width="140%" height="140%">
      <feGaussianBlur stdDeviation="6" result="blur" />
      <feMerge>
        <feMergeNode in="blur" />
        <feMergeNode in="SourceGraphic" />
      </feMerge>
    </filter>
    <filter id="glowGreen" x="-20%" y="-20%" width="140%" height="140%">
      <feGaussianBlur stdDeviation="4" result="blur" />
      <feMerge>
        <feMergeNode in="blur" />
        <feMergeNode in="SourceGraphic" />
      </feMerge>
    </filter>
    <linearGradient id="bgGrad" x1="0%" y1="0%" x2="100%" y2="100%">
      <stop offset="0%" stop-color="#0a0d14"/>
      <stop offset="100%" stop-color="#111827"/>
    </linearGradient>
  </defs>

  <rect width="850" height="420" fill="url(#bgGrad)" rx="16" />
  <rect width="850" height="420" fill="none" stroke="#1f2937" stroke-width="2" rx="16" />

  <g stroke="#ffffff" stroke-width="1" opacity="0.03">
    <path d="M 0 50 L 850 50 M 0 100 L 850 100 M 0 150 L 850 150 M 0 200 L 850 200 M 0 250 L 850 250 M 0 300 L 850 300 M 0 350 L 850 350" />
    <path d="M 50 0 L 50 420 M 100 0 L 100 420 M 150 0 L 150 420 M 200 0 L 200 420 M 250 0 L 250 420 M 300 0 L 300 420 M 350 0 L 350 420 M 400 0 L 400 420 M 450 0 L 450 420 M 500 0 L 500 420 M 550 0 L 550 420 M 600 0 L 600 420 M 650 0 L 650 420 M 700 0 L 700 420 M 750 0 L 750 420 M 800 0 L 800 420" />
  </g>

  <g transform="translate(50, 40)">
    <rect width="240" height="340" rx="20" fill="#0d1117" stroke="#374151" stroke-width="3" />
    
    <path d="M 0 20 Q 0 0 20 0 L 220 0 Q 240 0 240 20 L 240 50 L 0 50 Z" fill="#1f2937" />
    <circle cx="30" cy="25" r="10" fill="#00E676" filter="url(#glowGreen)" />
    <text x="50" y="30" fill="#ffffff" font-family="system-ui, sans-serif" font-weight="bold" font-size="14">KrishiMitra AI</text>
    <text x="50" y="43" fill="#9ca3af" font-family="system-ui, sans-serif" font-size="10">Bot • Online</text>

    <rect x="70" y="70" width="150" height="90" rx="12" fill="#374151" />
    <rect x="80" y="80" width="130" height="50" rx="6" fill="#1f2937" />
    <path d="M 145 90 Q 165 90 165 110 Q 165 130 145 130 Q 125 130 125 110 Q 125 90 145 90 Z" fill="#10b981" />
    <text x="210" y="148" text-anchor="end" fill="#f3f4f6" font-family="system-ui, sans-serif" font-size="11">मक्का में कौनसी बीमारी है?</text>

    <text x="20" y="185" fill="#00f0ff" font-family="monospace" font-size="10" filter="url(#glowCyan)">> Analyzing via FastAPI...</text>

    <rect x="20" y="200" width="190" height="90" rx="12" fill="#064e3b" />
    <text x="30" y="220" fill="#10b981" font-family="system-ui, sans-serif" font-weight="bold" font-size="12">Gemini Vision Analysis:</text>
    <text x="30" y="240" fill="#f3f4f6" font-family="system-ui, sans-serif" font-size="11">फंगल संक्रमण का संकेत।</text>
    <text x="30" y="255" fill="#f3f4f6" font-family="system-ui, sans-serif" font-size="11">Northern Corn Leaf Blight.</text>
    <text x="30" y="275" fill="#6ee7b7" font-family="system-ui, sans-serif" font-size="10">उपचार: फफूंदनाशी का उपयोग करें।</text>
  </g>

  <path d="M 290 130 C 330 130 330 150 370 150" fill="none" stroke="#00f0ff" stroke-width="3" stroke-dasharray="6 4" filter="url(#glowCyan)" />
  <circle cx="330" cy="140" r="4" fill="#ff007f" filter="url(#glowPink)">
    <animate attributeName="cx" values="290; 370" dur="2s" repeatCount="indefinite" />
  </circle>

  <g transform="translate(370, 40)">
    <rect width="430" height="340" rx="15" fill="rgba(17, 24, 39, 0.6)" stroke="#1f2937" stroke-width="2" />
    
    <text x="25" y="35" fill="#00f0ff" font-family="monospace" font-weight="bold" font-size="16" letter-spacing="1">HYBRID_INFERENCE_PIPELINE</text>
    <rect x="25" y="45" width="380" height="1" fill="#374151" />

    <rect x="25" y="65" width="380" height="100" rx="8" fill="#0d1117" stroke="#ff007f" stroke-width="1.5" />
    <text x="40" y="85" fill="#ff007f" font-family="monospace" font-size="12" font-weight="bold" filter="url(#glowPink)">[◆] CONFIDENCE THRESHOLD ROUTER</text>
    
    <circle cx="50" cy="110" r="4" fill="#00f0ff" />
    <text x="65" y="114" fill="#d1d5db" font-family="system-ui, sans-serif" font-size="12">1. Local CNN (EfficientNetB0) → Fast Classification</text>
    
    <circle cx="50" cy="135" r="4" fill="#ff007f" />
    <text x="65" y="139" fill="#d1d5db" font-family="system-ui, sans-serif" font-size="12">2. If Confidence &lt; 85% → Route to Gemini Vision</text>

    <text x="25" y="200" fill="#00f0ff" font-family="monospace" font-size="14" font-weight="bold">REAL-TIME EXECUTION TELEMETRY</text>

    <text x="25" y="230" fill="#9ca3af" font-family="monospace" font-size="11">EfficientNetB0 (Low Light Image Detected)</text>
    <rect x="25" y="240" width="380" height="8" rx="4" fill="#1f2937" />
    <rect x="25" y="240" width="160" height="8" rx="4" fill="#ff007f" filter="url(#glowPink)" />
    <text x="375" y="230" fill="#ff007f" font-family="monospace" font-size="11">42%</text>

    <text x="25" y="280" fill="#9ca3af" font-family="monospace" font-size="11">Gemini Vision (Multimodal Fallback Triggered)</text>
    <rect x="25" y="290" width="380" height="8" rx="4" fill="#1f2937" />
    <rect x="25" y="290" width="360" height="8" rx="4" fill="#00f0ff" filter="url(#glowCyan)" />
    <text x="375" y="280" fill="#00f0ff" font-family="monospace" font-size="11">96%</text>

    <rect x="25" y="315" width="120" height="20" rx="4" fill="#064e3b" />
    <text x="85" y="328" fill="#10b981" font-family="monospace" font-size="10" text-anchor="middle" font-weight="bold">1,200+ ACTIVE USERS</text>

    <rect x="155" y="315" width="100" height="20" rx="4" fill="#1e3a8a" />
    <text x="205" y="328" fill="#60a5fa" font-family="monospace" font-size="10" text-anchor="middle" font-weight="bold">TWILIO API LOGGED</text>
  </g>
</svg>
